<svg width="738" height="170" viewBox="0 0 738 170" fill="none" xmlns="http://www.w3.org/2000/svg">
<path opacity="0.9" d="M148.009 136H122.502V34.6824H197.888V55.5127H148.009V77.7601H188.677V98.5904H148.009V136ZM263.834 102.416V105.817H211.688C211.688 115.878 218.773 121.405 227.275 121.405C235.352 121.405 238.753 117.72 240.17 114.036H263.267C259.158 128.773 247.113 138.409 226.708 138.409C203.185 138.409 189.015 122.397 189.015 99.724C189.015 78.4686 202.335 61.0391 226.708 61.0391C251.364 61.0391 263.834 75.6345 263.834 102.416ZM211.829 91.7887H241.02C241.02 82.4363 235.494 77.4767 226.708 77.4767C218.064 77.4767 212.396 82.4363 211.829 91.7887ZM287.533 136H264.861V34.6824H287.533V136ZM314.18 136H291.507V34.6824H314.18V136ZM353.58 138.409C329.632 138.409 315.037 122.822 315.037 99.8657C315.037 77.0516 329.632 61.0391 354.005 61.0391C377.953 61.0391 392.548 76.6264 392.548 99.4406C392.548 122.397 377.953 138.409 353.58 138.409ZM353.863 121.405C363.924 121.405 369.592 113.753 369.592 99.724C369.592 85.6954 363.924 78.0435 353.863 78.0435C343.661 78.0435 337.993 85.6954 337.993 99.724C337.993 113.753 343.661 121.405 353.863 121.405ZM427.141 136H405.886L385.622 63.4481H408.295L419.206 107.659H419.49L431.676 63.4481H451.514L463.701 107.659H464.126L475.037 63.4481H497.001L476.738 136H455.482L441.453 90.0882H441.17L427.141 136ZM525.667 138.267C500.302 138.267 490.383 126.081 489.816 111.91H511.072C511.78 119.137 516.598 122.68 525.242 122.68C531.902 122.68 534.878 120.554 534.878 116.445C534.878 109.927 527.651 109.218 517.165 106.809C504.412 103.833 491.233 98.7321 491.233 83.995C491.233 70.3915 502.57 61.1808 522.975 61.1808C546.214 61.1808 555.283 72.9422 555.992 85.6954H534.736C534.028 79.8856 530.91 76.7681 523.4 76.7681C517.165 76.7681 514.473 79.0354 514.473 82.578C514.473 87.3959 518.724 87.6793 529.635 90.2299C543.947 93.6308 558.117 97.8819 558.117 114.745C558.117 129.907 546.639 138.267 525.667 138.267ZM605.379 61.1808C619.408 61.1808 628.902 70.3915 628.902 86.9708V136H606.23V94.1976C606.23 83.2865 602.404 79.6022 594.893 79.6022C586.25 79.6022 581.29 83.995 581.29 94.0559V136H558.618V34.6824H581.29V73.9341H581.573C585.399 67.274 592.485 61.1808 605.379 61.1808ZM655.125 54.8042H632.453V34.6824H655.125V54.8042ZM655.125 136H632.453V63.4481H655.125V136ZM703.027 61.1808C722.299 61.1808 734.627 75.9179 734.627 99.724C734.627 123.53 722.299 138.267 703.027 138.267C692.541 138.267 684.889 132.599 682.055 128.773H681.772V161.081H659.099V63.4481H681.772V70.6749H682.055C684.889 66.8489 692.541 61.1808 703.027 61.1808ZM696.792 121.263C706.003 121.263 711.388 113.894 711.388 99.724C711.388 85.5537 706.003 78.1852 696.792 78.1852C687.582 78.1852 682.197 85.5537 682.197 99.724C682.197 113.894 687.582 121.263 696.792 121.263Z" fill="black"/>
<path d="M78.8581 102.889C84.6325 92.6363 93.8203 71.0622 93.2508 58.9292C92.6858 53.7838 88.8147 49.2489 89.7389 43.8728C90.8939 37.1555 94.2223 34.7118 101.053 35.587C105.464 35.7585 109.558 35.4398 112.934 39.1052C117.876 44.4708 116.711 53.2379 114.124 59.411C113.357 61.2419 112.48 63.1685 111.784 65.0852L100.08 96.9167C98.5555 101.115 97.4245 105.426 95.9549 109.637C94.7185 113.18 93.1543 116.621 91.975 120.179C91.1327 122.721 90.7311 125.411 89.7827 127.919C88.9967 129.998 88.0073 133.312 86.34 134.816C84.496 136.478 70.5374 135.978 67.2317 136.188C64.955 136.455 59.8945 136.717 58.8567 134.228C56.0311 127.454 53.8327 120.425 51.4964 113.472L37.6335 73.2386L33.8271 61.9891C32.3873 57.6109 31.7227 52.5473 26.9806 50.6256C26.5185 50.4232 24.0657 49.8128 23.4391 49.6456C21.1034 49.4197 19.7484 49.3637 17.4183 48.8543C13.7923 45.8568 14.5198 42.7001 16.9007 39.2574C19.0885 38.4348 22.7349 38.5148 25.0571 38.6545C30.5392 38.5582 36.0221 38.5237 41.5049 38.5512C45.3793 38.5539 49.298 38.4533 53.15 38.9557C55.7298 39.292 58.0274 40.2344 58.9591 42.9105C60.2294 46.5594 61.1067 50.3704 62.2326 54.0673C63.026 56.7404 64.3304 59.3645 65.161 61.9837C66.1024 64.9528 66.7806 68.0619 67.6983 71.0613C68.6099 74.0409 70.118 76.8148 71.055 79.7202C73.713 87.9624 74.3532 95.3656 78.8581 102.889Z" fill="#252424"/>
<path d="M26.9766 50.6253C38.6132 49.8033 38.771 56.345 41.8544 65.5216L46.6175 79.322L61.1862 121.818L63.962 130.008C64.492 131.581 65.5259 135.746 67.2277 136.187C64.9509 136.455 59.8905 136.716 58.8527 134.228C56.0271 127.454 53.8287 120.424 51.4924 113.472L37.6294 73.2383L33.8231 61.9888C32.3832 57.6106 31.7187 52.547 26.9766 50.6253Z" fill="#0B0B0B"/>
<path d="M78.8535 102.889C84.6279 92.6363 93.8157 71.0622 93.2463 58.9292C92.6813 53.7838 88.8102 49.2489 89.7344 43.8728C90.8893 37.1555 94.2178 34.7118 101.048 35.587C99.6884 36.0198 98.1955 38.8532 97.511 40.1649C95.8547 43.339 95.9965 47.0473 97.0512 50.3858C97.9221 53.1425 99.4732 55.5247 99.7602 58.463C100.94 70.5343 90.2811 93.4384 84.6253 104.452C84.0642 105.545 83.2896 107.07 82.0615 107.506C81.4732 107.715 81.0109 107.602 80.4569 107.365C79.774 106.663 78.802 103.733 78.8535 102.889Z" fill="#0B0B0B"/>
<path d="M16.9007 39.2579C19.0885 38.4354 22.7349 38.5154 25.0571 38.6551C24.4733 38.6853 23.7163 38.6481 23.2871 39.0089C22.1185 40.7152 21.5824 43.9965 21.915 46.071C22.0472 46.8959 23.307 48.8382 23.4391 49.6462C21.1034 49.4203 19.7484 49.3643 17.4183 48.8549C13.7923 45.8574 14.5198 42.7007 16.9007 39.2579Z" fill="#0B0B0B"/>
<path d="M103.679 38.763C112.928 37.532 114.541 47.3121 112.633 54.0825C111.424 58.371 109.734 62.5027 108.254 66.7061L98.2931 94.5435L89.5592 118.805C88.1258 122.838 86.1707 129.639 84.1021 133.006C79.722 133.279 73.149 133.126 68.6738 133.058C66.0455 126.66 63.3965 118.087 61.0869 111.363L47.9278 73.1418L43.7235 60.6507C43.0998 58.7921 42.0686 55.4256 41.2779 53.7501C39.361 49.5275 35.3941 47.4797 30.9517 46.6726C29.3878 46.3885 26.4758 46.581 25.3731 45.6108C25.1001 44.8714 25.0582 44.0922 25.2972 43.3342C25.4746 42.7717 25.8279 42.247 26.3819 42.0003C27.485 41.509 53.2826 41.4753 54.756 42.0845C55.6406 42.4505 56.2843 43.4677 56.6393 44.3187C57.4119 46.171 57.8825 48.2825 58.4717 50.2065L61.6907 60.4584L71.4365 91.1964C73.1936 96.6532 74.9002 102.155 76.8304 107.543C77.5881 109.388 78.0104 110.709 80.1612 111.148C82.7431 111.675 84.7666 111.005 86.205 108.752C87.5851 106.591 88.7205 104.16 89.8349 101.829C94.2168 92.6642 98.2977 83.2819 101.093 73.4982C102.106 69.9366 103.356 64.0786 103.385 60.5049C103.409 58.7013 103.121 56.9069 102.534 55.2013C101.171 51.1872 98.3228 47.4324 100.094 42.7933C100.74 41.0988 101.979 39.4992 103.679 38.763Z" fill="#0B0B0B"/>
</svg>
