<svg width="720" height="126" viewBox="0 0 720 126" fill="none" xmlns="http://www.w3.org/2000/svg">
<g clip-path="url(#clip0_321_4834)">
<path opacity="0.9" d="M133.009 100.936H107.502V-0.382094H182.888V20.4482H133.009V42.6956H173.677V63.526H133.009V100.936ZM248.834 67.3519V70.7528H196.688C196.688 80.8137 203.773 86.3401 212.275 86.3401C220.352 86.3401 223.753 82.6559 225.17 78.9716H248.267C244.158 93.7087 232.113 103.344 211.708 103.344C188.185 103.344 174.015 87.3321 174.015 64.6596C174.015 43.4041 187.335 25.9747 211.708 25.9747C236.364 25.9747 248.834 40.5701 248.834 67.3519ZM196.829 56.7242H226.02C226.02 47.3718 220.494 42.4122 211.708 42.4122C203.064 42.4122 197.396 47.3718 196.829 56.7242ZM272.533 100.936H249.861V-0.382094H272.533V100.936ZM299.18 100.936H276.507V-0.382094H299.18V100.936ZM338.58 103.344C314.632 103.344 300.037 87.7572 300.037 64.8013C300.037 41.9871 314.632 25.9747 339.005 25.9747C362.953 25.9747 377.548 41.562 377.548 64.3762C377.548 87.3321 362.953 103.344 338.58 103.344ZM338.863 86.3401C348.924 86.3401 354.592 78.6882 354.592 64.6596C354.592 50.631 348.924 42.979 338.863 42.979C328.661 42.979 322.993 50.631 322.993 64.6596C322.993 78.6882 328.661 86.3401 338.863 86.3401ZM412.141 100.936H390.886L370.622 28.3836H393.295L404.206 72.5949H404.49L416.676 28.3836H436.514L448.701 72.5949H449.126L460.037 28.3836H482.001L461.738 100.936H440.482L426.453 55.0238H426.17L412.141 100.936ZM510.667 103.203C485.302 103.203 475.383 91.0163 474.816 76.846H496.072C496.78 84.0729 501.598 87.6155 510.242 87.6155C516.902 87.6155 519.878 85.4899 519.878 81.3805C519.878 74.8622 512.651 74.1537 502.165 71.7447C489.412 68.769 476.233 63.6677 476.233 48.9305C476.233 35.3271 487.57 26.1164 507.975 26.1164C531.214 26.1164 540.283 37.8777 540.992 50.631H519.736C519.028 44.8212 515.91 41.7037 508.4 41.7037C502.165 41.7037 499.473 43.9709 499.473 47.5135C499.473 52.3314 503.724 52.6148 514.635 55.1655C528.947 58.5664 543.117 62.8174 543.117 79.6801C543.117 94.8423 531.639 103.203 510.667 103.203ZM590.379 26.1164C604.408 26.1164 613.902 35.3271 613.902 51.9063V100.936H591.23V59.1332C591.23 48.222 587.404 44.5378 579.893 44.5378C571.25 44.5378 566.29 48.9305 566.29 58.9915V100.936H543.618V-0.382094H566.29V38.8696H566.573C570.399 32.2096 577.485 26.1164 590.379 26.1164ZM640.125 19.7397H617.453V-0.382094H640.125V19.7397ZM640.125 100.936H617.453V28.3836H640.125V100.936ZM688.027 26.1164C707.299 26.1164 719.627 40.8535 719.627 64.6596C719.627 88.4657 707.299 103.203 688.027 103.203C677.541 103.203 669.889 97.5347 667.055 93.7087H666.772V126.017H644.099V28.3836H666.772V35.6105H667.055C669.889 31.7845 677.541 26.1164 688.027 26.1164ZM681.792 86.1984C691.003 86.1984 696.388 78.8299 696.388 64.6596C696.388 50.4893 691.003 43.1207 681.792 43.1207C672.582 43.1207 667.197 50.4893 667.197 64.6596C667.197 78.8299 672.582 86.1984 681.792 86.1984Z" fill="black"/>
<path d="M63.8581 67.8243C69.6325 57.5719 78.8203 35.9978 78.2508 23.8647C77.6858 18.7193 73.8147 14.1844 74.7389 8.80831C75.8939 2.09102 79.2223 -0.352647 86.0526 0.522517C90.4644 0.694031 94.5581 0.375353 97.9342 4.04077C102.876 9.40639 101.711 18.1735 99.1243 24.3466C98.357 26.1774 97.4797 28.1041 96.7844 30.0207L85.0802 61.8523C83.5555 66.0509 82.4245 70.362 80.9549 74.5725C79.7185 78.1151 78.1543 81.5562 76.975 85.115C76.1327 87.6568 75.7311 90.3464 74.7827 92.8546C73.9967 94.9336 73.0073 98.2478 71.34 99.7511C69.496 101.413 55.5374 100.913 52.2317 101.123C49.955 101.391 44.8945 101.652 43.8567 99.1638C41.0311 92.3899 38.8327 85.3603 36.4964 78.4077L22.6335 38.1741L18.8271 26.9246C17.3873 22.5465 16.7227 17.4828 11.9806 15.5612C11.5185 15.3587 9.06574 14.7484 8.43905 14.5811C6.10344 14.3552 4.7484 14.2992 2.4183 13.7899C-1.20766 10.7924 -0.480191 7.63562 1.90074 4.19291C4.08847 3.37036 7.73487 3.45034 10.0571 3.59004C15.5392 3.4937 21.0221 3.45922 26.5049 3.48677C30.3793 3.48944 34.298 3.38884 38.15 3.8913C40.7298 4.22757 43.0274 5.16992 43.9591 7.84607C45.2294 11.495 46.1067 15.3059 47.2326 19.0028C48.026 21.6759 49.3304 24.3 50.161 26.9193C51.1024 29.8883 51.7806 32.9974 52.6983 35.9969C53.6099 38.9764 55.118 41.7503 56.055 44.6557C58.713 52.898 59.3532 60.3012 63.8581 67.8243Z" fill="#252424"/>
<path d="M11.9766 15.5609C23.6132 14.7389 23.771 21.2805 26.8544 30.4571L31.6175 44.2575L46.1862 86.7534L48.962 94.9433C49.492 96.5162 50.5259 100.682 52.2277 101.123C49.9509 101.39 44.8905 101.652 43.8527 99.1636C41.0271 92.3896 38.8287 85.36 36.4924 78.4074L22.6294 38.1738L18.8231 26.9243C17.3832 22.5462 16.7187 17.4825 11.9766 15.5609Z" fill="#0B0B0B"/>
<path d="M63.8535 67.8243C69.6279 57.5719 78.8157 35.9978 78.2463 23.8647C77.6813 18.7193 73.8102 14.1844 74.7344 8.80831C75.8893 2.09102 79.2178 -0.352647 86.0481 0.522517C84.6884 0.9553 83.1955 3.78874 82.511 5.10042C80.8547 8.27458 80.9965 11.9828 82.0512 15.3214C82.9221 18.0781 84.4732 20.4602 84.7602 23.3985C85.9399 35.4699 75.2811 58.374 69.6253 69.3876C69.0642 70.4804 68.2896 72.0055 67.0615 72.4415C66.4732 72.6503 66.0109 72.5376 65.4569 72.3009C64.774 71.5985 63.802 68.6687 63.8535 67.8243Z" fill="#0B0B0B"/>
<path d="M1.90074 4.19349C4.08847 3.37094 7.73487 3.45092 10.0571 3.59062C9.47329 3.62083 8.71632 3.58368 8.28709 3.94448C7.11849 5.65073 6.58244 8.93207 6.91498 11.0066C7.04721 11.8314 8.30699 13.7737 8.43905 14.5817C6.10344 14.3558 4.7484 14.2998 2.4183 13.7904C-1.20766 10.7929 -0.480191 7.63621 1.90074 4.19349Z" fill="#0B0B0B"/>
<path d="M88.679 3.69858C97.9283 2.46759 99.5407 12.2476 97.6327 19.018C96.4241 23.3066 94.7337 27.4382 93.2537 31.6416L83.2931 59.4791L74.5592 83.7405C73.1258 87.7739 71.1707 94.5749 69.1021 97.9412C64.722 98.2145 58.149 98.0611 53.6738 97.9931C51.0455 91.5952 48.3965 83.023 46.0869 76.2986L32.9278 38.0774L28.7235 25.5862C28.0998 23.7276 27.0686 20.3612 26.2779 18.6857C24.361 14.4631 20.3941 12.4152 15.9517 11.6081C14.3878 11.3241 11.4758 11.5166 10.3731 10.5463C10.1001 9.80696 10.0582 9.02776 10.2972 8.26973C10.4746 7.7072 10.8279 7.18253 11.3819 6.93583C12.485 6.44457 38.2826 6.4108 39.756 7.02008C40.6406 7.38603 41.2843 8.40321 41.6393 9.2542C42.4119 11.1065 42.8825 13.218 43.4717 15.142L46.6907 25.3939L56.4365 56.132C58.1936 61.5888 59.9002 67.0906 61.8304 72.4786C62.5881 74.3233 63.0104 75.6447 65.1612 76.0836C67.7431 76.6105 69.7666 75.9405 71.205 73.6877C72.5851 71.5266 73.7205 69.0952 74.8349 66.7646C79.2168 57.5997 83.2977 48.2175 86.0933 38.4337C87.1064 34.8721 88.356 29.0142 88.3848 25.4405C88.409 23.6368 88.1209 21.8424 87.5337 20.1369C86.1706 16.1227 83.3228 12.3679 85.0937 7.72888C85.7405 6.03436 86.9793 4.43475 88.679 3.69858Z" fill="#0B0B0B"/>
</g>
<defs>
<clipPath id="clip0_321_4834">
<rect width="720" height="126" fill="white"/>
</clipPath>
</defs>
</svg>
