<svg width="735" height="142" viewBox="0 0 735 142" fill="none" xmlns="http://www.w3.org/2000/svg">
<path opacity="0.9" d="M148.009 115.936H122.502V14.6179H197.888V35.4482H148.009V57.6956H188.677V78.526H148.009V115.936ZM263.834 82.3519V85.7528H211.688C211.688 95.8137 218.773 101.34 227.275 101.34C235.352 101.34 238.753 97.6559 240.17 93.9716H263.267C259.158 108.709 247.113 118.344 226.708 118.344C203.185 118.344 189.015 102.332 189.015 79.6596C189.015 58.4041 202.335 40.9747 226.708 40.9747C251.364 40.9747 263.834 55.5701 263.834 82.3519ZM211.829 71.7242H241.02C241.02 62.3718 235.494 57.4122 226.708 57.4122C218.064 57.4122 212.396 62.3718 211.829 71.7242ZM287.533 115.936H264.861V14.6179H287.533V115.936ZM314.18 115.936H291.507V14.6179H314.18V115.936ZM353.58 118.344C329.632 118.344 315.037 102.757 315.037 79.8013C315.037 56.9871 329.632 40.9747 354.005 40.9747C377.953 40.9747 392.548 56.562 392.548 79.3762C392.548 102.332 377.953 118.344 353.58 118.344ZM353.863 101.34C363.924 101.34 369.592 93.6882 369.592 79.6596C369.592 65.631 363.924 57.979 353.863 57.979C343.661 57.979 337.993 65.631 337.993 79.6596C337.993 93.6882 343.661 101.34 353.863 101.34ZM427.141 115.936H405.886L385.622 43.3836H408.295L419.206 87.5949H419.49L431.676 43.3836H451.514L463.701 87.5949H464.126L475.037 43.3836H497.001L476.738 115.936H455.482L441.453 70.0238H441.17L427.141 115.936ZM525.667 118.203C500.302 118.203 490.383 106.016 489.816 91.846H511.072C511.78 99.0729 516.598 102.615 525.242 102.615C531.902 102.615 534.878 100.49 534.878 96.3805C534.878 89.8622 527.651 89.1537 517.165 86.7447C504.412 83.769 491.233 78.6677 491.233 63.9305C491.233 50.3271 502.57 41.1164 522.975 41.1164C546.214 41.1164 555.283 52.8777 555.992 65.631H534.736C534.028 59.8212 530.91 56.7037 523.4 56.7037C517.165 56.7037 514.473 58.9709 514.473 62.5135C514.473 67.3314 518.724 67.6148 529.635 70.1655C543.947 73.5664 558.117 77.8174 558.117 94.6801C558.117 109.842 546.639 118.203 525.667 118.203ZM605.379 41.1164C619.408 41.1164 628.902 50.3271 628.902 66.9063V115.936H606.23V74.1332C606.23 63.222 602.404 59.5378 594.893 59.5378C586.25 59.5378 581.29 63.9305 581.29 73.9915V115.936H558.618V14.6179H581.29V53.8696H581.573C585.399 47.2096 592.485 41.1164 605.379 41.1164ZM655.125 34.7397H632.453V14.6179H655.125V34.7397ZM655.125 115.936H632.453V43.3836H655.125V115.936ZM703.027 41.1164C722.299 41.1164 734.627 55.8535 734.627 79.6596C734.627 103.466 722.299 118.203 703.027 118.203C692.541 118.203 684.889 112.535 682.055 108.709H681.772V141.017H659.099V43.3836H681.772V50.6105H682.055C684.889 46.7845 692.541 41.1164 703.027 41.1164ZM696.792 101.198C706.003 101.198 711.388 93.8299 711.388 79.6596C711.388 65.4893 706.003 58.1207 696.792 58.1207C687.582 58.1207 682.197 65.4893 682.197 79.6596C682.197 93.8299 687.582 101.198 696.792 101.198Z" fill="black"/>
<path d="M78.8581 82.8243C84.6325 72.5719 93.8203 50.9978 93.2508 38.8647C92.6858 33.7193 88.8147 29.1844 89.7389 23.8083C90.8939 17.091 94.2223 14.6474 101.053 15.5225C105.464 15.694 109.558 15.3754 112.934 19.0408C117.876 24.4064 116.711 33.1735 114.124 39.3466C113.357 41.1774 112.48 43.1041 111.784 45.0207L100.08 76.8523C98.5555 81.0509 97.4245 85.362 95.9549 89.5725C94.7185 93.1151 93.1543 96.5562 91.975 100.115C91.1327 102.657 90.7311 105.346 89.7827 107.855C88.9967 109.934 88.0073 113.248 86.34 114.751C84.496 116.413 70.5374 115.913 67.2317 116.123C64.955 116.391 59.8945 116.652 58.8567 114.164C56.0311 107.39 53.8327 100.36 51.4964 93.4077L37.6335 53.1741L33.8271 41.9246C32.3873 37.5465 31.7227 32.4828 26.9806 30.5612C26.5185 30.3587 24.0657 29.7484 23.4391 29.5811C21.1034 29.3552 19.7484 29.2992 17.4183 28.7899C13.7923 25.7924 14.5198 22.6356 16.9007 19.1929C19.0885 18.3704 22.7349 18.4503 25.0571 18.59C30.5392 18.4937 36.0221 18.4592 41.5049 18.4868C45.3793 18.4894 49.298 18.3888 53.15 18.8913C55.7298 19.2276 58.0274 20.1699 58.9591 22.8461C60.2294 26.495 61.1067 30.3059 62.2326 34.0028C63.026 36.6759 64.3304 39.3 65.161 41.9193C66.1024 44.8883 66.7806 47.9974 67.6983 50.9969C68.6099 53.9764 70.118 56.7503 71.055 59.6557C73.713 67.898 74.3532 75.3012 78.8581 82.8243Z" fill="#252424"/>
<path d="M26.9766 30.5609C38.6132 29.7389 38.771 36.2805 41.8544 45.4571L46.6175 59.2575L61.1862 101.753L63.962 109.943C64.492 111.516 65.5259 115.682 67.2277 116.123C64.9509 116.39 59.8905 116.652 58.8527 114.164C56.0271 107.39 53.8287 100.36 51.4924 93.4074L37.6294 53.1738L33.8231 41.9243C32.3832 37.5462 31.7187 32.4825 26.9766 30.5609Z" fill="#0B0B0B"/>
<path d="M78.8535 82.8243C84.6279 72.5719 93.8157 50.9978 93.2463 38.8647C92.6813 33.7193 88.8102 29.1844 89.7344 23.8083C90.8893 17.091 94.2178 14.6474 101.048 15.5225C99.6884 15.9553 98.1955 18.7887 97.511 20.1004C95.8547 23.2746 95.9965 26.9828 97.0512 30.3214C97.9221 33.0781 99.4732 35.4602 99.7602 38.3985C100.94 50.4699 90.2811 73.374 84.6253 84.3876C84.0642 85.4804 83.2896 87.0055 82.0615 87.4415C81.4732 87.6503 81.0109 87.5376 80.4569 87.3009C79.774 86.5985 78.802 83.6687 78.8535 82.8243Z" fill="#0B0B0B"/>
<path d="M16.9007 19.1935C19.0885 18.3709 22.7349 18.4509 25.0571 18.5906C24.4733 18.6208 23.7163 18.5837 23.2871 18.9445C22.1185 20.6507 21.5824 23.9321 21.915 26.0066C22.0472 26.8314 23.307 28.7737 23.4391 29.5817C21.1034 29.3558 19.7484 29.2998 17.4183 28.7904C13.7923 25.7929 14.5198 22.6362 16.9007 19.1935Z" fill="#0B0B0B"/>
<path d="M103.679 18.6986C112.928 17.4676 114.541 27.2476 112.633 34.018C111.424 38.3066 109.734 42.4382 108.254 46.6416L98.2931 74.4791L89.5592 98.7405C88.1258 102.774 86.1707 109.575 84.1021 112.941C79.722 113.215 73.149 113.061 68.6738 112.993C66.0455 106.595 63.3965 98.023 61.0869 91.2986L47.9278 53.0774L43.7235 40.5862C43.0998 38.7276 42.0686 35.3612 41.2779 33.6857C39.361 29.4631 35.3941 27.4152 30.9517 26.6081C29.3878 26.3241 26.4758 26.5166 25.3731 25.5463C25.1001 24.807 25.0582 24.0278 25.2972 23.2697C25.4746 22.7072 25.8279 22.1825 26.3819 21.9358C27.485 21.4446 53.2826 21.4108 54.756 22.0201C55.6406 22.386 56.2843 23.4032 56.6393 24.2542C57.4119 26.1065 57.8825 28.218 58.4717 30.142L61.6907 40.3939L71.4365 71.132C73.1936 76.5888 74.9002 82.0906 76.8304 87.4786C77.5881 89.3233 78.0104 90.6447 80.1612 91.0836C82.7431 91.6105 84.7666 90.9405 86.205 88.6877C87.5851 86.5266 88.7205 84.0952 89.8349 81.7646C94.2168 72.5997 98.2977 63.2175 101.093 53.4337C102.106 49.8721 103.356 44.0142 103.385 40.4405C103.409 38.6368 103.121 36.8424 102.534 35.1369C101.171 31.1227 98.3228 27.3679 100.094 22.7289C100.74 21.0344 101.979 19.4348 103.679 18.6986Z" fill="#0B0B0B"/>
</svg>
